<?xml version="1.0" standalone="no"?>
<!DOCTYPE svg PUBLIC "-//W3C//DTD SVG 20010904//EN"
 "http://www.w3.org/TR/2001/REC-SVG-20010904/DTD/svg10.dtd">
<svg version="1.0" xmlns="http://www.w3.org/2000/svg"
 width="700.000000pt" height="700.000000pt" viewBox="0 0 700.000000 700.000000"
 preserveAspectRatio="xMidYMid meet">
<metadata>
Created by potrace 1.14, written by Peter Selinger 2001-2017
</metadata>
<g transform="translate(0.000000,700.000000) scale(0.100000,-0.100000)"
fill="#000000" stroke="none">
<path d="M3276 6990 c-1467 -102 -2728 -1122 -3141 -2540 -92 -316 -128 -582
-129 -940 -1 -337 24 -551 99 -850 226 -899 815 -1685 1622 -2167 879 -525
1936 -635 2898 -303 509 176 950 454 1341 844 578 579 909 1263 1016 2101 19
154 16 609 -6 770 -55 407 -158 755 -327 1100 -481 987 -1404 1706 -2464 1920
-299 60 -631 84 -909 65z m895 -1860 c253 -11 336 -26 456 -85 96 -47 177
-129 231 -233 50 -95 157 -415 203 -602 l33 -135 109 -145 c114 -152 182 -276
213 -390 16 -58 18 -125 22 -660 3 -528 1 -599 -13 -637 -17 -44 -79 -107
-121 -123 -14 -6 -94 -10 -177 -10 -175 0 -212 11 -265 76 -45 54 -52 88 -52
258 l0 148 -142 -6 c-717 -34 -1604 -34 -2330 0 l-148 7 0 -160 c0 -150 -1
-162 -25 -210 -16 -32 -41 -62 -67 -79 -41 -29 -44 -29 -201 -32 -131 -3 -168
0 -204 13 -52 20 -106 81 -122 138 -9 31 -11 194 -8 617 3 499 6 584 21 640
40 154 97 257 251 450 41 52 78 106 81 120 71 301 156 573 220 706 28 58 57
98 109 149 130 129 253 171 546 184 267 12 1117 12 1380 1z"/>
<path d="M3010 4830 c-162 -5 -322 -13 -354 -19 -109 -19 -156 -69 -217 -228
-41 -107 -99 -303 -106 -361 -9 -76 -6 -77 214 -61 261 19 1643 20 1900 1 100
-8 191 -11 202 -7 11 3 23 14 26 25 13 40 -86 373 -145 490 -53 103 -102 133
-250 149 -131 14 -912 21 -1270 11z"/>
<path d="M2226 3505 c-143 -51 -210 -228 -138 -366 98 -187 372 -185 466 3 55
110 23 252 -72 325 -70 53 -172 68 -256 38z"/>
<path d="M4575 3497 c-60 -28 -117 -89 -136 -143 -17 -51 -16 -150 3 -195 74
-171 307 -213 435 -78 95 100 97 261 4 357 -52 54 -103 76 -186 80 -58 2 -79
-1 -120 -21z"/>
<path d="M2985 3421 c-48 -22 -69 -44 -90 -94 -29 -70 -10 -174 41 -219 53
-47 65 -48 566 -48 438 0 476 2 513 19 73 34 105 85 105 171 0 86 -32 137
-105 171 -37 17 -74 19 -515 19 -440 0 -478 -2 -515 -19z"/>
</g>
</svg>
